<?xml version="1.0" encoding="UTF-8"?>
<svg version="1.1" xmlns="http://www.w3.org/2000/svg" width="1002" height="421">
<path d="M0 0 C320.76 0 641.52 0 972 0 C972 3.3 972 6.6 972 10 C651.24 10 330.48 10 0 10 C0 6.7 0 3.4 0 0 Z " fill="#020202" transform="translate(15,132)"/>
<path d="M0 0 C320.76 0 641.52 0 972 0 C972 2.97 972 5.94 972 9 C651.24 9 330.48 9 0 9 C0 6.03 0 3.06 0 0 Z " fill="#020202" transform="translate(15,380)"/>
<path d="M0 0 C1.16273438 0.08121094 2.32546875 0.16242188 3.5234375 0.24609375 C6.02454632 0.50124465 8.21126262 0.92072906 10.625 1.5625 C10.68314085 5.14576501 10.71864357 8.72890838 10.75 12.3125 C10.76675781 13.32828125 10.78351563 14.3440625 10.80078125 15.390625 C10.80722656 16.3703125 10.81367187 17.35 10.8203125 18.359375 C10.83078613 19.26010742 10.84125977 20.16083984 10.85205078 21.08886719 C10.60563904 23.77343034 10.10012929 25.31621822 8.625 27.5625 C6.32405521 29.07365333 4.10608115 30.40117676 1.6875 31.6875 C-3.42990505 34.47815306 -3.42990505 34.47815306 -8.375 37.5625 C-7.83940082 41.7813027 -6.91243093 44.90955166 -4.828125 48.609375 C-4.0546875 50.0015625 -4.0546875 50.0015625 -3.265625 51.421875 C-2.72421875 52.37578125 -2.1828125 53.3296875 -1.625 54.3125 C-0.56596571 56.20214942 0.49133831 58.09276964 1.546875 59.984375 C2.06056641 60.90412109 2.57425781 61.82386719 3.10351562 62.77148438 C5.39593948 66.97671376 7.52565791 71.2582623 9.625 75.5625 C3.765625 76.734375 3.765625 76.734375 1.625 76.5625 C-1.89034401 73.58099438 -4.05135149 70.02595876 -6.265625 66.046875 C-6.61510193 65.43104553 -6.96457886 64.81521606 -7.324646 64.1807251 C-8.43092132 62.22805525 -9.52806033 60.27042655 -10.625 58.3125 C-11.37700482 56.98143204 -12.12960296 55.65069911 -12.8828125 54.3203125 C-14.72042277 51.07155642 -16.54987908 47.81829249 -18.375 44.5625 C-26.96043762 48.65176558 -35.07808833 53.21211012 -43.0625 58.375 C-44.14466797 59.03564453 -45.22683594 59.69628906 -46.34179688 60.37695312 C-51.91911253 63.76823677 -51.91911253 63.76823677 -55.29931641 69.07958984 C-55.67867608 71.81772328 -55.67867608 71.81772328 -55.375 75.5625 C-59.995 75.5625 -64.615 75.5625 -69.375 75.5625 C-69.375 51.1425 -69.375 26.7225 -69.375 1.5625 C-66.52789911 0.61346637 -64.6548546 0.41236567 -61.69506836 0.35717773 C-60.74655502 0.33723251 -59.79804169 0.31728729 -58.82078552 0.29673767 C-57.79582474 0.28002518 -56.77086395 0.26331268 -55.71484375 0.24609375 C-54.12537682 0.2149221 -54.12537682 0.2149221 -52.50379944 0.18312073 C-49.10676614 0.11769865 -45.70965214 0.0588907 -42.3125 0 C-40.05012237 -0.04321159 -37.78775242 -0.08682672 -35.52539062 -0.13085938 C-8.731287 -0.63767826 -8.731287 -0.63767826 0 0 Z M-55.375 9.5625 C-55.375 24.0825 -55.375 38.6025 -55.375 53.5625 C-51.05762353 52.12337451 -47.87992899 50.89500857 -44.0234375 48.7265625 C-43.01595459 48.16340332 -42.00847168 47.60024414 -40.97045898 47.02001953 C-37.66124085 45.13699388 -34.35993523 43.24054508 -31.05859375 41.34375 C-26.85826818 38.93073245 -22.633494 36.66501745 -18.28515625 34.53125 C-17.35848145 34.04962402 -16.43180664 33.56799805 -15.47705078 33.07177734 C-13.74881207 32.17392931 -11.99575243 31.32178525 -10.21826172 30.52587891 C-7.43073051 29.17780523 -7.43073051 29.17780523 -4.375 25.5625 C-4.375 20.2825 -4.375 15.0025 -4.375 9.5625 C-21.205 9.5625 -38.035 9.5625 -55.375 9.5625 Z " fill="#010101" transform="translate(717.375,173.4375)"/>
<path d="M0 0 C1.74796875 0.12181641 1.74796875 0.12181641 3.53125 0.24609375 C6.5 0.5625 6.5 0.5625 9.5 1.5625 C9.5 4.2025 9.5 6.8425 9.5 9.5625 C-11.95 9.5625 -33.4 9.5625 -55.5 9.5625 C-55.5 13.1925 -55.5 16.8225 -55.5 20.5625 C-41.64 20.5625 -27.78 20.5625 -13.5 20.5625 C-13.5 23.8625 -13.5 27.1625 -13.5 30.5625 C-15.35516235 30.60008423 -15.35516235 30.60008423 -17.24780273 30.63842773 C-21.81936713 30.73232253 -26.39077318 30.83258629 -30.9621582 30.93481445 C-32.94389146 30.97823144 -34.92566378 31.01990137 -36.9074707 31.05981445 C-39.7496317 31.11735383 -42.59159483 31.18109445 -45.43359375 31.24609375 C-46.77108925 31.27116249 -46.77108925 31.27116249 -48.13560486 31.29673767 C-52.13948395 30.999087 -52.13948395 30.999087 -55.5 32.5625 C-55.65996166 35.15403107 -55.75938697 37.7220202 -55.81640625 40.31640625 C-55.83718735 41.09185287 -55.85796844 41.8672995 -55.87937927 42.66624451 C-55.94495802 45.15240308 -56.00379799 47.63867045 -56.0625 50.125 C-56.10567733 51.80665204 -56.14929136 53.48829294 -56.19335938 55.16992188 C-56.30064779 59.30066871 -56.40189132 63.43152536 -56.5 67.5625 C-55.77638779 67.56027939 -55.05277557 67.55805878 -54.30723572 67.55577087 C-47.4664133 67.5356803 -40.62559533 67.52048129 -33.78475094 67.51068783 C-30.26835299 67.50548356 -26.75197955 67.49843082 -23.2355957 67.48706055 C-19.18700941 67.47405228 -15.13844861 67.46925148 -11.08984375 67.46484375 C-9.83541977 67.45968246 -8.58099579 67.45452118 -7.28855896 67.44920349 C-1.58764195 67.44883879 3.88848122 67.51689785 9.5 68.5625 C9.5 71.5325 9.5 74.5025 9.5 77.5625 C3.57145472 77.58804391 -2.35705573 77.60573725 -8.28564453 77.61743164 C-10.28434814 77.6223281 -12.28304848 77.62904221 -14.28173828 77.63793945 C-33.05188683 77.71913348 -51.71730315 77.11493226 -70.5 76.5625 C-70.5 51.8125 -70.5 27.0625 -70.5 1.5625 C-67.65733171 0.6149439 -65.79046505 0.41246766 -62.8359375 0.35717773 C-61.89065186 0.33723251 -60.94536621 0.31728729 -59.97143555 0.29673767 C-58.94961182 0.28002518 -57.92778809 0.26331268 -56.875 0.24609375 C-55.81772705 0.22531265 -54.7604541 0.20453156 -53.67114258 0.18312073 C-50.28082837 0.11770034 -46.89043303 0.05890342 -43.5 0 C-41.24608593 -0.04321378 -38.99217952 -0.08682897 -36.73828125 -0.13085938 C-34.55469421 -0.17223068 -32.3711006 -0.21325697 -30.1875 -0.25390625 C-28.67905518 -0.28201134 -28.67905518 -0.28201134 -27.14013672 -0.3106842 C-8.62196916 -0.63111261 -8.62196916 -0.63111261 0 0 Z " fill="#010101" transform="translate(429.5,173.4375)"/>
<path d="M0 0 C25.41 0 50.82 0 77 0 C77 24 77 24 75 28 C72.65752631 29.53041614 70.39659589 30.88072223 67.9375 32.1875 C63.7104211 34.24734983 63.7104211 34.24734983 60 37 C60.1013496 44.27690097 63.88693223 49.92315537 67.375 56.125 C68.26058594 57.73181641 68.26058594 57.73181641 69.1640625 59.37109375 C72.33051884 65.10214213 72.33051884 65.10214213 75.69384766 70.71826172 C77 73 77 73 77 75 C73.86241869 75.49540757 72.01797011 75.76183714 69 75 C63.23488669 69.5636277 59.39764579 61.90994348 55.5625 55.0625 C55.02173828 54.11826172 54.48097656 53.17402344 53.92382812 52.20117188 C50 45.27122511 50 45.27122511 50 43 C43.71497241 46.54086062 37.54247325 50.25881699 31.375 54 C30.35148438 54.61617188 29.32796875 55.23234375 28.2734375 55.8671875 C27.2834375 56.46789062 26.2934375 57.06859375 25.2734375 57.6875 C24.38060059 58.22761719 23.48776367 58.76773438 22.56787109 59.32421875 C17.27047044 62.55730097 17.27047044 62.55730097 14.07421875 67.578125 C13.94660156 68.45984375 13.81898438 69.3415625 13.6875 70.25 C13.460625 71.8175 13.23375 73.385 13 75 C8.71 75 4.42 75 0 75 C0 50.25 0 25.5 0 0 Z M13 9 C13 23.52 13 38.04 13 53 C17.66560075 52.06687985 19.43263067 51.31298354 23.25 48.8125 C30.98820354 43.86056789 39.02931789 39.45861493 47.06542969 35.01293945 C49.1223814 33.87144954 51.1696437 32.71227881 53.20556641 31.53369141 C56 30 56 30 58.54052734 29.02490234 C61.15383329 28.05864101 61.15383329 28.05864101 64 25 C64 19.72 64 14.44 64 9 C47.17 9 30.34 9 13 9 Z " fill="#010101" transform="translate(625,272)"/>
<path d="M0 0 C1.60407328 -0.02708567 3.2082785 -0.04643483 4.8125 -0.0625 C5.70582031 -0.07410156 6.59914063 -0.08570313 7.51953125 -0.09765625 C10 0 10 0 13 1 C13 25.42 13 49.84 13 75 C9.09112 76.95444 5.22885523 76.85862116 1 76 C-7.6278362 71.04553042 -14.61062507 62.50208678 -21.54296875 55.4609375 C-24.67080916 52.30026108 -27.91568522 49.33847283 -31.3125 46.46875 C-33.12940433 44.88737031 -34.8121128 43.21802804 -36.5 41.5 C-40.991729 36.93615609 -45.66469502 32.55686999 -51 29 C-51 44.51 -51 60.02 -51 76 C-55.62 76 -60.24 76 -65 76 C-65 51.25 -65 26.5 -65 1 C-60.38 1 -55.76 1 -51 1 C-51.07347656 3.2171875 -51.14695312 5.434375 -51.22265625 7.71875 C-51.00150274 15.04806675 -48.51170207 18.94996834 -43.38198853 23.99462891 C-41.75589709 25.52245786 -40.09903958 27.01089578 -38.4375 28.5 C-37.3503506 29.52530023 -36.2663392 30.55393831 -35.18554688 31.5859375 C-30.11212364 36.39482919 -24.87790037 41.01975107 -19.59399414 45.59570312 C-17.00980521 47.87235418 -14.640266 50.33686736 -12.25 52.8125 C-10.17391501 54.83091596 -8.04179585 56.73483175 -5.859375 58.63671875 C-5.13717773 59.26666748 -4.41498047 59.89661621 -3.67089844 60.5456543 C-3.11950195 61.02558838 -2.56810547 61.50552246 -2 62 C-1.98969254 61.35599747 -1.97938507 60.71199493 -1.96876526 60.04847717 C-1.86016866 53.31567312 -1.74561757 46.58298866 -1.62768555 39.8503418 C-1.58450625 37.34125279 -1.54281999 34.83213761 -1.50268555 32.32299805 C-1.44456896 28.70613739 -1.38099583 25.08940642 -1.31640625 21.47265625 C-1.29969376 20.35979752 -1.28298126 19.24693878 -1.26576233 18.10035706 C-1.15103531 12.00070878 -0.78109964 6.05143745 0 0 Z " fill="#010101" transform="translate(514,174)"/>
<path d="M0 0 C7.93318486 -0.30512249 7.93318486 -0.30512249 11 2 C11.43359375 4.57421875 11.43359375 4.57421875 11.4375 7.6875 C11.82061979 14.66694322 13.65899621 17.85645507 18.65234375 22.5546875 C19.94609768 23.69800493 21.25624433 24.82291582 22.578125 25.93359375 C25.5423789 28.46277167 28.39513514 31.09872356 31.25 33.75 C34.56443467 36.82338488 37.87887302 39.89602019 41.22265625 42.9375 C42.25269044 43.87490521 43.28264017 44.81240324 44.3125 45.75 C44.80927246 46.20221924 45.30604492 46.65443848 45.81787109 47.12036133 C49.37182978 50.37528334 52.77448325 53.74562955 56.0859375 57.24609375 C58.52608251 59.57194506 58.52608251 59.57194506 64 63 C64 42.21 64 21.42 64 0 C67.96 0 71.92 0 76 0 C80.19669187 4.19669187 78.16245189 18.12304649 78.16796875 23.69140625 C78.17296135 25.46933815 78.17296135 25.46933815 78.17805481 27.28318787 C78.18309078 29.77496963 78.18546417 32.26675807 78.18530273 34.75854492 C78.18749546 38.55463777 78.20570405 42.35044256 78.22460938 46.14648438 C78.22754281 48.57812401 78.22952794 51.00976502 78.23046875 53.44140625 C78.23765427 54.566642 78.24483978 55.69187775 78.25224304 56.85121155 C78.23389972 63.21988601 77.63444682 68.83914362 76 75 C69.87661841 75.52113886 64.92372201 75.33753344 59.76953125 71.75390625 C56.94964452 69.23230204 54.33094014 66.51563254 51.72412109 63.77636719 C48.74482846 60.70679295 45.58109412 57.83684997 42.4375 54.9375 C41.17254462 53.75718787 39.90821411 52.57620568 38.64453125 51.39453125 C30.52538977 43.82308416 22.32904747 36.3404989 14 29 C13.14045007 34.28271433 12.79917016 39.43021996 12.68359375 44.77734375 C12.66281265 45.58869278 12.64203156 46.40004181 12.62062073 47.23597717 C12.55574357 49.80307339 12.49653078 52.37026337 12.4375 54.9375 C12.39425582 56.68816036 12.35063974 58.43881158 12.30664062 60.18945312 C12.2001265 64.45954171 12.09868886 68.72972368 12 73 C7.43183976 75.43492123 5.07187896 74.98165399 0 74 C-2.77302867 71.22697133 -2.25351067 69.58551182 -2.25878906 65.7019043 C-2.2622937 65.05615448 -2.26579834 64.41040466 -2.26940918 63.74508667 C-2.27823 61.6046888 -2.27237426 59.46462015 -2.265625 57.32421875 C-2.26697205 55.83689816 -2.26891292 54.34957799 -2.27142334 52.86225891 C-2.27437548 49.74089375 -2.27007599 46.6196429 -2.26074219 43.49829102 C-2.24937719 39.50349356 -2.25588764 35.50896572 -2.26788712 31.51417828 C-2.27512871 28.4403329 -2.27280673 25.36655096 -2.26763153 22.29270363 C-2.26629985 20.82035096 -2.26792587 19.34799248 -2.27259064 17.87564659 C-2.27769044 15.81237015 -2.26989636 13.74952386 -2.25878906 11.6862793 C-2.25719788 10.51316696 -2.25560669 9.34005463 -2.25396729 8.13139343 C-2.00160518 5.01979173 -1.32620989 2.8067082 0 0 Z " fill="#010101" transform="translate(186,274)"/>
<path d="M0 0 C6.93 0.495 6.93 0.495 14 1 C13.93489583 3.9296875 13.86979167 6.859375 13.8046875 9.7890625 C14.07012697 14.15288739 14.78572823 17.67073724 17.79174805 20.96142578 C18.54496338 21.5748584 19.29817871 22.18829102 20.07421875 22.8203125 C24.95327045 27.00386033 29.50250452 31.42051853 34.01953125 35.9921875 C34.73124481 36.70973206 35.44295837 37.42727661 36.17623901 38.16656494 C39.14627695 41.16297874 42.11173157 44.16386271 45.07299805 47.16894531 C47.25911874 49.38525382 49.45141034 51.59530889 51.64453125 53.8046875 C52.309189 54.48280487 52.97384674 55.16092224 53.65864563 55.85958862 C54.28667587 56.49099762 54.91470612 57.12240662 55.56176758 57.77294922 C56.10674393 58.325383 56.65172028 58.87781677 57.21321106 59.44699097 C59.39515701 61.43452215 59.39515701 61.43452215 64 64 C64.33 43.21 64.66 22.42 65 1 C69.29 0.67 73.58 0.34 78 0 C78 25.08 78 50.16 78 76 C63 76 63 76 59.375 73.62109375 C58.59125 72.57050781 57.8075 71.51992187 57 70.4375 C56.11949527 69.32732663 55.23798829 68.2179474 54.35546875 67.109375 C53.18951172 65.57023437 53.18951172 65.57023437 52 64 C50.80009339 62.70150387 49.57537906 61.42483768 48.3125 60.1875 C47.77109375 59.65382812 47.2296875 59.12015625 46.671875 58.5703125 C44.19534788 56.24422862 41.61770302 54.04038268 39.04296875 51.82421875 C36.19904997 49.28481135 33.55417208 46.56615747 30.8828125 43.84765625 C29.23154905 42.22722552 27.55336643 40.75791179 25.75 39.3125 C23.07731586 37.06501561 21.15468037 34.72926181 19 32 C16.87396815 30.23676495 16.87396815 30.23676495 15 29 C13.75448301 33.81398781 13.87310956 38.52346887 13.90234375 43.45703125 C13.90446617 44.81147591 13.90446617 44.81147591 13.90663147 46.19328308 C13.91221177 49.06638963 13.92476066 51.93941716 13.9375 54.8125 C13.94251755 56.76497283 13.94708001 58.71744689 13.95117188 60.66992188 C13.96217475 65.44664485 13.97942582 70.22330904 14 75 C12.25181409 75.22304441 10.50129677 75.4278645 8.75 75.625 C7.77546875 75.74101562 6.8009375 75.85703125 5.796875 75.9765625 C2.81159915 76.00157878 1.55919591 75.404203 -1 74 C-1.0233862 66.56642435 -1.04104681 59.13285261 -1.05181217 51.69924831 C-1.05698443 48.2458559 -1.06397639 44.79248904 -1.07543945 41.33911133 C-1.08859554 37.34976994 -1.09327486 33.3604545 -1.09765625 29.37109375 C-1.10281754 28.15796005 -1.10797882 26.94482635 -1.11329651 25.69493103 C-1.11384805 17.07768519 -0.64260011 8.58949555 0 0 Z " fill="#010101" transform="translate(185,174)"/>
<path d="M0 0 C1.5214775 0.04839367 3.04296188 0.09657173 4.56445312 0.14453125 C8.23055093 0.26054878 11.89654852 0.37943691 15.5625 0.5 C15.5625 2.81 15.5625 5.12 15.5625 7.5 C-5.5575 7.5 -26.6775 7.5 -48.4375 7.5 C-48.4375 27.3 -48.4375 47.1 -48.4375 67.5 C-31.6075 67.5 -14.7775 67.5 2.5625 67.5 C2.2325 59.58 1.9025 51.66 1.5625 43.5 C-3.67816194 39.3986124 -5.93250233 37.65727743 -11.55224609 35.44433594 C-14.90785107 33.76349159 -17.00101066 31.32678234 -19.4375 28.5 C-19.4375 27.84 -19.4375 27.18 -19.4375 26.5 C-9.30049182 24.77210088 -3.26457837 28.32048571 4.80078125 33.82421875 C5.42090088 34.2833667 6.04102051 34.74251465 6.67993164 35.21557617 C8.51502185 36.55798378 8.51502185 36.55798378 10.58374023 37.35668945 C12.9776043 38.50234385 14.07827383 39.27242457 15.5625 41.5 C16.44599685 47.12357759 16.21988432 52.64114417 16 58.3125 C15.96486864 59.8794882 15.93293278 61.44655152 15.90429688 63.01367188 C15.82734327 66.84430607 15.70667319 70.67133034 15.5625 74.5 C6.41838952 75.444795 -2.64166608 75.63360905 -11.828125 75.59765625 C-13.09382324 75.59664917 -14.35952148 75.59564209 -15.66357422 75.59460449 C-20.33822552 75.58941916 -25.01286378 75.57545834 -29.6875 75.5625 C-40.165 75.541875 -50.6425 75.52125 -61.4375 75.5 C-61.4375 50.75 -61.4375 26 -61.4375 0.5 C-40.79111193 -0.21194442 -20.56643831 -0.67803945 0 0 Z " fill="#010101" transform="translate(335.4375,174.5)"/>
<path d="M0 0 C6.331875 -0.061875 12.66375 -0.12375 19.1875 -0.1875 C21.1780542 -0.21481201 23.1686084 -0.24212402 25.21948242 -0.27026367 C26.8064717 -0.27902982 28.39346775 -0.28667346 29.98046875 -0.29296875 C30.79696899 -0.30831665 31.61346924 -0.32366455 32.45471191 -0.33947754 C39.01821694 -0.3424851 42.78900355 1.52107165 47.5 6.125 C52.19342321 10.91601802 56.11922485 16.27783789 60.13061523 21.63696289 C63.86528547 26.60363314 67.73348585 31.19772363 72.09765625 35.62890625 C78.42728793 43.51820076 78.54102205 50.4790167 78.3125 60.4375 C78.30283203 61.72849609 78.29316406 63.01949219 78.28320312 64.34960938 C78.16836021 73.83163979 78.16836021 73.83163979 77 75 C74.59651714 75.09496708 72.22189018 75.12558862 69.81811523 75.11352539 C68.6913588 75.11374443 68.6913588 75.11374443 67.5418396 75.1139679 C65.04739541 75.11326863 62.55302497 75.10547564 60.05859375 75.09765625 C58.33366436 75.09579212 56.60873443 75.09436819 54.88380432 75.09336853 C50.33487497 75.08954297 45.78597733 75.07971238 41.23706055 75.06866455 C35.78388372 75.05665681 30.33069632 75.05204837 24.87751007 75.04621124 C16.58498462 75.03650063 8.29252884 75.01734435 0 75 C0 50.25 0 25.5 0 0 Z M13 9 C13 28.14 13 47.28 13 67 C20.486875 67.020625 27.97375 67.04125 35.6875 67.0625 C38.04350342 67.071604 40.39950684 67.08070801 42.8269043 67.09008789 C44.70100854 67.09300939 46.57511341 67.0955574 48.44921875 67.09765625 C49.41686157 67.10277222 50.38450439 67.10788818 51.38146973 67.11315918 C52.31479126 67.11328003 53.24811279 67.11340088 54.2097168 67.11352539 C55.0157988 67.115746 55.8218808 67.11796661 56.65238953 67.12025452 C59.18086474 66.99073534 61.53226148 66.55273825 64 66 C65.73159201 48.25104073 65.73159201 48.25104073 59.40234375 32.47265625 C58.60957031 31.65667969 57.81679688 30.84070313 57 30 C55.93599077 28.83459175 54.87502098 27.66640434 53.81640625 26.49609375 C51.15201931 23.5736548 48.42870546 20.71903599 45.64990234 17.90527344 C43.22468325 15.1046801 41.1533295 12.0146613 39 9 C30.42 9 21.84 9 13 9 Z " fill="#010101" transform="translate(274,272)"/>
<path d="M0 0 C9.85734875 -0.06772781 19.71454343 -0.12278826 29.57207203 -0.15543652 C34.14912866 -0.17110459 38.72601811 -0.19236359 43.30297852 -0.22631836 C47.71851435 -0.25887126 52.1338892 -0.27684441 56.54953575 -0.28463173 C58.23568952 -0.29018258 59.9218343 -0.30102185 61.60791969 -0.31719017 C63.96642854 -0.33891075 66.32426885 -0.34196924 68.68286133 -0.34057617 C69.38273163 -0.351362 70.08260193 -0.36214783 70.80368042 -0.3732605 C73.63717872 -0.35510429 75.59138851 -0.25718221 78.01982117 1.27128601 C79 3 79 3 78.6875 5.1875 C78.460625 5.785625 78.23375 6.38375 78 7 C70.86813774 9.22102176 64.1823526 9.25895416 56.75 9.1953125 C55.49614502 9.1924826 54.24229004 9.18965271 52.95043945 9.18673706 C49.6427535 9.17748144 46.33526818 9.15956217 43.02764893 9.1373291 C39.64215531 9.11674364 36.25663213 9.10770839 32.87109375 9.09765625 C26.24730822 9.07566871 19.62369291 9.04117636 13 9 C13 13.62 13 18.24 13 23 C14.16015625 23.35835938 15.3203125 23.71671875 16.515625 24.0859375 C23.76165777 26.50411003 30.73531392 29.61580736 37.75 32.625 C39.22058733 33.25311949 40.69129133 33.88096588 42.16210938 34.50854492 C45.08090016 35.75459854 47.99880798 37.00268614 50.91601562 38.25244141 C54.5399322 39.80438442 58.16769569 41.34711682 61.796875 42.88671875 C63.69797643 43.69517199 65.59902309 44.50375403 67.5 45.3125 C68.36463867 45.67875488 69.22927734 46.04500977 70.12011719 46.42236328 C75.88556318 48.88556318 75.88556318 48.88556318 77 50 C77.08737645 51.85369611 77.10698153 53.71067541 77.09765625 55.56640625 C77.09282227 57.2534668 77.09282227 57.2534668 77.08789062 58.97460938 C77.07532227 60.75061523 77.07532227 60.75061523 77.0625 62.5625 C77.05798828 63.75037109 77.05347656 64.93824219 77.04882812 66.16210938 C77.03699675 69.10812226 77.02051287 72.05403681 77 75 C73.06266284 75.92889669 69.40236848 76.12663263 65.36132812 76.12939453 C64.71514023 76.13114685 64.06895233 76.13289917 63.40318298 76.13470459 C61.27917755 76.13908551 59.1552562 76.13619841 57.03125 76.1328125 C55.54821761 76.13348662 54.06518533 76.13445755 52.58215332 76.13571167 C49.47874903 76.13718355 46.37537359 76.13505047 43.27197266 76.13037109 C39.30087233 76.12467411 35.32983961 76.12795584 31.35874176 76.13394356 C28.29778538 76.13756293 25.23684493 76.13640425 22.17588806 76.13381577 C20.71190889 76.13315031 19.24792826 76.13396157 17.78395081 76.13629532 C15.73548569 76.13884444 13.68712895 76.1349495 11.63867188 76.12939453 C10.47460815 76.12859894 9.31054443 76.12780334 8.11120605 76.12698364 C5.28643956 76.01169101 2.74578048 75.64778461 0 75 C0 72.69 0 70.38 0 68 C3.20347459 66.93217514 5.48187823 66.87941694 8.84838867 66.88647461 C10.64991646 66.88658791 10.64991646 66.88658791 12.48783875 66.88670349 C14.4332531 66.89444542 14.4332531 66.89444542 16.41796875 66.90234375 C17.75889534 66.90420923 19.09982261 66.90563252 20.44075012 66.90663147 C23.96709073 66.91044644 27.49339004 66.92026801 31.01971436 66.93133545 C34.61925701 66.9415715 38.21880635 66.94613379 41.81835938 66.95117188 C48.87892313 66.9618912 55.93945887 66.97895538 63 67 C63.34353594 59.76231862 63.34353594 59.76231862 60.69168091 53.34985352 C58.82358684 52.15866938 57.00668262 51.33354707 54.94140625 50.53125 C53.84912971 50.03878029 53.84912971 50.03878029 52.73478699 49.53636169 C50.36127154 48.47837816 47.96501852 47.49010624 45.5625 46.5 C43.92470663 45.78405231 42.28896511 45.06339314 40.65527344 44.33813477 C37.36257687 42.88320672 34.06079135 41.45326909 30.74853516 40.04345703 C25.26034695 37.69834145 19.85291186 35.19567293 14.44799805 32.66577148 C9.64300616 30.42014281 4.81977042 28.21373176 0 26 C0 17.42 0 8.84 0 0 Z " fill="#010101" transform="translate(450,272)"/>
<path d="M0 0 C4.29 0 8.58 0 13 0 C13 21.78 13 43.56 13 66 C30.16 66 47.32 66 65 66 C65.33 44.22 65.66 22.44 66 0 C70.29 0 74.58 0 79 0 C79 24.75 79 49.5 79 75 C52.93 75 26.86 75 0 75 C0 50.25 0 25.5 0 0 Z " fill="#010101" transform="translate(360,272)"/>
<path d="M0 0 C26.07 0 52.14 0 79 0 C79 2.31 79 4.62 79 7 C57.22 7 35.44 7 13 7 C13 11.62 13 16.24 13 21 C27.52 21 42.04 21 57 21 C56.67 23.64 56.34 26.28 56 29 C42.14 29 28.28 29 14 29 C13.67 41.54 13.34 54.08 13 67 C34.78 67 56.56 67 79 67 C79 69.64 79 72.28 79 75 C52.93 75 26.86 75 0 75 C0 50.25 0 25.5 0 0 Z " fill="#010101" transform="translate(559,175)"/>
<path d="M0 0 C1.07242699 -0.00855011 1.07242699 -0.00855011 2.16651917 -0.01727295 C3.67520682 -0.02669614 5.18391481 -0.03324625 6.69262695 -0.03710938 C8.9927164 -0.04682772 11.29191638 -0.0778799 13.59179688 -0.109375 C15.06119264 -0.11590471 16.53059476 -0.12115531 18 -0.125 C18.68348007 -0.1373468 19.36696014 -0.1496936 20.07115173 -0.16241455 C24.43084298 -0.14220458 27.18994064 0.40149447 30.56640625 3.203125 C32.33642578 5.93261719 32.33642578 5.93261719 33.94921875 9.25 C34.39337883 10.14907578 34.39337883 10.14907578 34.84651184 11.0663147 C35.80850501 13.02221929 36.74999902 14.98724081 37.69140625 16.953125 C38.35633072 18.31518891 39.02243916 19.67667544 39.68969727 21.03759766 C41.66777839 25.08363591 43.61934396 29.14209085 45.56640625 33.203125 C46.1073291 34.32750977 46.64825195 35.45189453 47.20556641 36.61035156 C49.08919024 40.52912006 50.96952852 44.44925081 52.82983398 48.37915039 C54.84077142 52.62633287 56.87763339 56.85224702 59.01953125 61.03515625 C59.39859619 61.77652832 59.77766113 62.51790039 60.16821289 63.28173828 C60.86580753 64.63676919 61.57017488 65.98834645 62.28295898 67.33544922 C63.99522904 70.65822533 64.56640625 72.35683987 64.56640625 76.203125 C62.31640625 76.515625 62.31640625 76.515625 59.56640625 76.203125 C55.87837307 72.31894994 53.69234652 67.83209343 51.37109375 63.0703125 C50.98160049 62.28430161 50.59210724 61.49829071 50.19081116 60.6884613 C49.36250318 59.01571437 48.53682809 57.34166148 47.71359253 55.66641235 C45.59241201 51.35082997 43.45146897 47.04506689 41.3125 42.73828125 C40.89720535 41.90086899 40.48191071 41.06345673 40.05403137 40.20066833 C36.94213963 33.93380925 33.77316753 27.70219055 30.50390625 21.515625 C30.1176709 20.78263184 29.73143555 20.04963867 29.33349609 19.29443359 C27.84810412 16.5021724 26.32259129 13.83740255 24.56640625 11.203125 C17.30640625 10.873125 10.04640625 10.543125 2.56640625 10.203125 C2.56640625 29.013125 2.56640625 47.823125 2.56640625 67.203125 C11.80640625 67.203125 21.04640625 67.203125 30.56640625 67.203125 C33.53640625 67.698125 33.53640625 67.698125 36.56640625 68.203125 C36.56640625 70.843125 36.56640625 73.483125 36.56640625 76.203125 C20.72640625 76.203125 4.88640625 76.203125 -11.43359375 76.203125 C-11.43359375 51.453125 -11.43359375 26.703125 -11.43359375 1.203125 C-7.51413155 0.22325945 -3.99802397 0.0247863 0 0 Z " fill="#010101" transform="translate(747.43359375,270.796875)"/>
<path d="M0 0 C1.11246094 0.04125 2.22492187 0.0825 3.37109375 0.125 C11.51390093 0.59421338 11.51390093 0.59421338 13.50474548 2.25613403 C15.17996443 4.20988657 16.23826167 6.10934566 17.38500977 8.41357422 C17.8330043 9.30656219 18.28099884 10.19955017 18.74256897 11.11959839 C19.22068527 12.0881778 19.69880157 13.0567572 20.19140625 14.0546875 C20.69614975 15.06604767 21.20089325 16.07740784 21.72093201 17.11941528 C22.79372761 19.27173721 23.86364076 21.42549789 24.9309082 23.58056641 C26.52674852 26.80281228 28.13063347 30.02093665 29.73632812 33.23828125 C32.8466141 39.48125405 35.93191957 45.73618356 39 52 C39.50150574 53.02371704 40.00301147 54.04743408 40.51971436 55.10217285 C41.94675226 58.0253376 43.3640833 60.95296597 44.77734375 63.8828125 C45.20632462 64.76226532 45.63530548 65.64171814 46.07728577 66.54782104 C46.4642009 67.35591217 46.85111603 68.1640033 47.24975586 68.99658203 C47.58953964 69.70074249 47.92932343 70.40490295 48.27940369 71.13040161 C49 73 49 73 49 76 C47.02 76 45.04 76 43 76 C38.11656232 66.809812 33.29341491 57.58965158 28.5390625 48.33203125 C28.14691559 47.56847824 27.75476868 46.80492523 27.35073853 46.01823425 C25.37215809 42.16404418 23.39603298 38.30861121 21.42236328 34.4519043 C17.38585932 26.57397329 13.28320305 18.74795966 9 11 C1.74 11 -5.52 11 -13 11 C-13 29.81 -13 48.62 -13 68 C-3.30667778 67.84196348 -3.30667778 67.84196348 6.38574219 67.63964844 C8.19800293 67.62466309 8.19800293 67.62466309 10.046875 67.609375 C11.28276367 67.58842773 12.51865234 67.56748047 13.79199219 67.54589844 C17.54827491 68.07760969 18.68359893 69.07668162 21 72 C19.52478408 75.74126925 19.52478408 75.74126925 17.3203125 76.828125 C3.46282589 79.49112954 -12.02455062 78.65257139 -26 77 C-27.91385412 75.08614588 -27.17529197 71.6289211 -27.20532227 69.09350586 C-27.22017166 68.01064049 -27.22017166 68.01064049 -27.23532104 66.90589905 C-27.26702299 64.50891449 -27.29172759 62.11191008 -27.31640625 59.71484375 C-27.33696829 58.05716931 -27.35796455 56.3995002 -27.37937927 54.74183655 C-27.4346775 50.37051705 -27.48405244 45.99914963 -27.53222656 41.62774658 C-27.58238516 37.17040726 -27.6381006 32.71313787 -27.69335938 28.25585938 C-27.80103568 19.5039653 -27.90245945 10.75201288 -28 2 C-25.63987577 1.66613615 -23.27921127 1.33749832 -20.91796875 1.01171875 C-20.258573 0.91789917 -19.59917725 0.82407959 -18.9197998 0.72741699 C-12.57564822 -0.14044266 -6.38739901 -0.25327976 0 0 Z " fill="#010101" transform="translate(786,173)"/>
<path d="M0 0 C0.74170944 -0.00043808 1.48341888 -0.00087616 2.24760437 -0.00132751 C4.69894749 0.00076235 7.14960646 0.02410198 9.60083008 0.04760742 C11.30047736 0.05320269 13.00012948 0.05747312 14.69978333 0.06047058 C19.17318074 0.07192483 23.64628592 0.1013969 28.11956787 0.13458252 C32.68424527 0.16527096 37.24896988 0.17897329 41.8137207 0.1940918 C50.7702293 0.22626612 59.72652101 0.27746943 68.68286133 0.34057617 C68.68286133 3.64057617 68.68286133 6.94057617 68.68286133 10.34057617 C54.16286133 10.34057617 39.64286133 10.34057617 24.68286133 10.34057617 C24.35286133 32.45057617 24.02286133 54.56057617 23.68286133 77.34057617 C19.39286133 77.34057617 15.10286133 77.34057617 10.68286133 77.34057617 C10.35286133 55.56057617 10.02286133 33.78057617 9.68286133 11.34057617 C4.07286133 11.01057617 -1.53713867 10.68057617 -7.31713867 10.34057617 C-8.63713867 9.68057617 -9.95713867 9.02057617 -11.31713867 8.34057617 C-10.9756898 5.81385452 -10.64687869 3.84071747 -9.23149109 1.69389343 C-6.33598428 -0.35303341 -3.41504366 -0.05262985 0 0 Z " fill="#020202" transform="translate(547.317138671875,270.659423828125)"/>
<path d="M0 0 C0 3.3 0 6.6 0 10 C-55.77 10 -111.54 10 -169 10 C-173 3 -173 3 -173 1 C-154.57793635 0.86840625 -136.15586487 0.73796985 -117.73378372 0.60884857 C-109.17684805 0.54884665 -100.61991517 0.48848975 -92.06298828 0.42724609 C-84.59008278 0.37376196 -77.11717259 0.32099582 -69.64425635 0.26903296 C-65.70078392 0.24158853 -61.75731443 0.2138248 -57.8138504 0.18519592 C-38.54206456 0.04555093 -19.27241101 -0.03016289 0 0 Z " fill="#010101" transform="translate(987,173)"/>
<path d="M0 0 C1.12138175 7.17063483 1.12813309 14.22114837 1.09765625 21.46875 C1.0962413 22.74480103 1.09482635 24.02085205 1.09336853 25.33557129 C1.08874011 28.70238156 1.07977971 32.06912207 1.06866455 35.43591309 C1.0583733 38.88174848 1.0538545 42.32759112 1.04882812 45.7734375 C1.03783326 52.51564403 1.0211208 59.25781799 1 66 C1.91700684 65.99476318 2.83401367 65.98952637 3.77880859 65.98413086 C7.22673184 65.96694563 10.67460863 65.95448076 14.12255859 65.94506836 C15.60628992 65.94008292 17.09001646 65.93329215 18.57373047 65.92456055 C41.44131502 65.79349213 41.44131502 65.79349213 44.70507812 68.31982422 C46.56916494 70.44352422 48 72.09103732 48 75 C42.14875548 76.25904113 36.35270573 76.161788 30.3984375 76.16796875 C29.28441559 76.17129715 28.17039368 76.17462555 27.02261353 76.17805481 C24.67425956 76.18310541 22.32589845 76.18546371 19.97753906 76.18530273 C16.38074031 76.1874965 12.78424483 76.20569207 9.1875 76.22460938 C6.90364688 76.22754219 4.61979231 76.22952773 2.3359375 76.23046875 C1.25984222 76.23765427 0.18374695 76.24483978 -0.92495728 76.25224304 C-1.92634735 76.24916641 -2.92773743 76.24608978 -3.95947266 76.24291992 C-4.8385025 76.24434494 -5.71753235 76.24576996 -6.62319946 76.24723816 C-9 76 -9 76 -13 74 C-13 49.91 -13 25.82 -13 1 C-7.34968203 -0.88343932 -5.51445885 -1.10289177 0 0 Z " fill="#010101" transform="translate(837,272)"/>
<path d="M0 0 C4.51729795 0.04456596 9.03329814 0.11481933 13.54980469 0.20751953 C15.08192166 0.23551075 16.61417718 0.25683246 18.14648438 0.27099609 C28.66600698 0.37399403 37.23824595 1.23269928 46.25 7.125 C54.60794882 15.86285559 57.35910349 24.99344702 57.375 36.8125 C57.39949219 37.75931641 57.42398438 38.70613281 57.44921875 39.68164062 C57.48735562 48.9171193 54.35735819 57.18504276 48 64 C34.7703042 75.78746481 16.46111247 73.35941294 0 73 C-1.43409227 70.13181547 -1.12729601 67.67629397 -1.12939453 64.47070312 C-1.13114685 63.80062729 -1.13289917 63.13055145 -1.13470459 62.44017029 C-1.1391135 60.22050401 -1.1361885 58.00091712 -1.1328125 55.78125 C-1.13348582 54.24190251 -1.13445607 52.70255513 -1.13571167 51.16320801 C-1.13718734 47.93512969 -1.13503828 44.70707902 -1.13037109 41.47900391 C-1.12467388 37.33600921 -1.12795358 33.19307929 -1.13394356 29.05008698 C-1.13755269 25.87086497 -1.13640896 22.69165838 -1.13381577 19.51243591 C-1.13314747 17.98457329 -1.13397152 16.45670927 -1.13629532 14.92884827 C-1.1388276 12.7956266 -1.13497311 10.66251065 -1.12939453 8.52929688 C-1.12859894 7.31399292 -1.12780334 6.09868896 -1.12698364 4.84655762 C-1 2 -1 2 0 0 Z M5 7 C5 26.14 5 45.28 5 65 C26.99763168 66.81651652 26.99763168 66.81651652 43.875 57.3125 C48.89903708 49.48091278 52.07675966 40.81257552 50.59375 31.4296875 C48.37257692 22.78297802 43.50008414 16.28895959 36.16015625 11.25390625 C26.14205278 5.4386961 17.02195977 7 5 7 Z " fill="#010101" transform="translate(837,26)"/>
<path d="M0 0 C36.33333333 0 36.33333333 0 45.8125 5.6875 C53.7805065 14.11082116 58.03909906 24.36993304 58.5 36 C58.01631635 48.18882792 53.6120964 57.26035595 45.25 65.8125 C32.33009751 74.50858822 14.32315821 72 0 72 C0 48.24 0 24.48 0 0 Z M6 6 C6 25.14 6 44.28 6 64 C27.16277362 65.44324501 27.16277362 65.44324501 42.1875 57.8125 C48.85218074 51.14781926 50.44478801 45.67376762 50.5 36.375 C50.50628418 35.56337402 50.51256836 34.75174805 50.51904297 33.91552734 C50.34402093 25.59093552 47.60309158 19.92096089 41.94921875 13.79296875 C31.97850509 4.62151069 18.77856273 6 6 6 Z " fill="#010101" transform="translate(678,27)"/>
<path d="M0 0 C1.70703125 1.46484375 1.70703125 1.46484375 3.70703125 4.46484375 C3.33203125 7.15234375 3.33203125 7.15234375 2.70703125 9.46484375 C0.53125 10.20703125 0.53125 10.20703125 -2.29296875 10.46484375 C-4.8984375 8.84765625 -4.8984375 8.84765625 -7.48046875 6.58984375 C-13.70504122 1.2331652 -17.2590549 1.17290854 -25.35546875 1.02734375 C-26.36802734 0.98158203 -27.38058594 0.93582031 -28.42382812 0.88867188 C-35.99548206 0.77639074 -40.57318273 2.49446798 -46.29296875 7.46484375 C-52.13459945 13.15378815 -54.66280364 18.94709985 -54.86352539 27.00317383 C-55.1613151 38.11915205 -55.1613151 38.11915205 -50.19140625 47.67578125 C-49.56492188 48.26617187 -48.9384375 48.8565625 -48.29296875 49.46484375 C-47.26042969 50.56699219 -47.26042969 50.56699219 -46.20703125 51.69140625 C-41.31031056 56.55376398 -37.18110966 58.9226645 -30.29296875 59.46484375 C-29.28943359 59.54992187 -29.28943359 59.54992187 -28.265625 59.63671875 C-19.61292686 59.97939986 -13.46543297 57.82852385 -6.51171875 52.796875 C-3.10590364 50.75218671 -0.22181428 50.60771086 3.70703125 50.46484375 C3.28506741 55.24710061 1.24045992 58.3567352 -2.29296875 61.46484375 C-11.06298285 67.51083832 -22.99563859 69.74374419 -33.51953125 68.2578125 C-42.12155474 65.79836071 -52.36000588 61.62437347 -57.19140625 53.73828125 C-63.82190606 40.05405824 -66.4385093 29.22714911 -61.55078125 14.546875 C-57.49523647 4.6095308 -49.24952863 -2.69601772 -39.46875 -6.80859375 C-25.84276429 -11.35874338 -11.55447089 -8.08169856 0 0 Z " fill="#010101" transform="translate(274.29296875,32.53515625)"/>
<path d="M0 0 C48.84 0 97.68 0 148 0 C148 2.97 148 5.94 148 9 C100.15 9 52.3 9 3 9 C0 3 0 3 0 0 Z " fill="#010101" transform="translate(839,215)"/>
<path d="M0 0 C2.9375 0.375 2.9375 0.375 6 1 C7.22178599 3.44357199 7.13749192 5.05001356 7.15771484 7.78173828 C7.16797699 8.77682404 7.17823914 9.77190979 7.18881226 10.79714966 C7.19611359 11.8772934 7.20341492 12.95743713 7.2109375 14.0703125 C7.2390189 16.35156952 7.26768344 18.63281942 7.296875 20.9140625 C7.33805065 24.51497096 7.37493208 28.11574838 7.40136719 31.71679688 C7.42907668 35.18908302 7.47496435 38.66076224 7.5234375 42.1328125 C7.52669037 43.20081085 7.52994324 44.2688092 7.53329468 45.36917114 C7.6350308 51.5962256 8.31895413 56.34799924 11 62 C14.90809954 65.56326723 19.85400384 66.13301444 25 66 C28.25106338 65.43371835 31.1188995 64.62952566 34 63 C35.61006032 60.56437999 35.61006032 60.56437999 36 58 C36.495 57.01 36.495 57.01 37 56 C37.11394364 54.3158194 37.16674166 52.62733098 37.18945312 50.93945312 C37.20617065 49.88495972 37.22288818 48.83046631 37.2401123 47.74401855 C37.25368774 46.60130493 37.26726318 45.45859131 37.28125 44.28125 C37.29965942 43.11243286 37.31806885 41.94361572 37.33703613 40.73937988 C37.3959313 36.99297226 37.44869096 33.24651876 37.5 29.5 C37.56747839 24.57281602 37.64114688 19.64578374 37.71875 14.71875 C37.73232544 13.57603638 37.74590088 12.43332275 37.7598877 11.25598145 C37.78496399 9.67424133 37.78496399 9.67424133 37.81054688 8.06054688 C37.82307495 7.1294812 37.83560303 6.19841553 37.84851074 5.23913574 C38 3 38 3 39 1 C42.0625 0.375 42.0625 0.375 45 0 C47.08741065 8.73122509 47.30992881 17.2054093 47.26074219 26.12426758 C47.25003428 28.4301187 47.26068593 30.73518824 47.2734375 33.04101562 C47.29907042 59.20292614 47.29907042 59.20292614 39.171875 67.97265625 C34.32451611 72.4777398 30.35661938 74.68333779 23.6875 75.3125 C16.07019751 74.66696589 10.7038943 72.24660474 4.82421875 67.40234375 C-0.34962643 60.58882172 -1.59253519 53.13162983 -1.42578125 44.78515625 C-1.42249313 43.84876816 -1.41920502 42.91238007 -1.41581726 41.94761658 C-1.40022131 38.98542029 -1.35629573 36.02439803 -1.3125 33.0625 C-1.30098851 31.08138958 -1.29120933 29.10026831 -1.28320312 27.11914062 C-1.22537232 18.0488208 -1.14823486 9.01182209 0 0 Z " fill="#010101" transform="translate(326,26)"/>
<path d="M0 0 C16.5241928 -0.04667486 33.04836429 -0.08196664 49.57260704 -0.10362434 C57.24471614 -0.11394668 64.91678434 -0.12802522 72.58886719 -0.15087891 C79.2741243 -0.17078357 85.95935179 -0.18370947 92.6446377 -0.18817699 C96.18601498 -0.19078935 99.72730751 -0.19694922 103.26865768 -0.21146011 C107.21737025 -0.22750966 111.16599913 -0.22798157 115.11474609 -0.22705078 C116.88527596 -0.23783661 116.88527596 -0.23783661 118.6915741 -0.24884033 C119.76292099 -0.246091 120.83426788 -0.24334167 121.93807983 -0.24050903 C122.87277792 -0.24235262 123.80747601 -0.24419621 124.77049828 -0.24609566 C127 0 127 0 129 2 C129.25 5 129.25 5 129 8 C127 10 127 10 124.78890896 10.24888897 C123.86288404 10.2483442 122.93685911 10.24779943 121.98277283 10.24723816 C120.92128525 10.25143265 119.85979767 10.25562714 118.7661438 10.25994873 C117.59671234 10.25432922 116.42728088 10.24870972 115.22241211 10.24291992 C113.38095863 10.24576744 113.38095863 10.24576744 111.50230408 10.24867249 C108.1304712 10.2517485 104.75888211 10.24585722 101.38707805 10.23571944 C97.86413768 10.22695157 94.34120161 10.22869613 90.81825256 10.2290802 C84.90249415 10.22814309 78.98678696 10.21945216 73.07104492 10.20581055 C66.22275311 10.19007727 59.3745174 10.18481266 52.52620882 10.1855461 C45.94810894 10.18615555 39.37002743 10.18105814 32.79193306 10.17275429 C29.98771585 10.16921558 27.18350514 10.1673902 24.37928581 10.16686058 C20.46890132 10.16567343 16.55856393 10.1559771 12.64819336 10.14526367 C11.47673767 10.14571686 10.30528198 10.14617004 9.09832764 10.14663696 C8.03965988 10.14237198 6.98099213 10.13810699 5.89024353 10.13371277 C4.96459563 10.13203692 4.03894773 10.13036108 3.0852499 10.12863445 C1 10 1 10 0 9 C-0.07179964 7.48071962 -0.08392007 5.95832518 -0.0625 4.4375 C-0.05347656 3.61121094 -0.04445313 2.78492188 -0.03515625 1.93359375 C-0.02355469 1.29550781 -0.01195312 0.65742188 0 0 Z " fill="#020202" transform="translate(15,256)"/>
<path d="M0 0 C1.41449133 0.00138269 1.41449133 0.00138269 2.85755825 0.00279331 C3.93594463 0.00141865 5.01433102 0.00004398 6.12539577 -0.00137234 C7.31869503 0.00222294 8.51199429 0.00581821 9.74145412 0.00952244 C10.99005718 0.00937641 12.23866024 0.00923038 13.52509975 0.00907993 C16.95883867 0.00965892 20.39251812 0.01468828 23.8262465 0.02165389 C27.41105332 0.02788785 30.99586086 0.02849126 34.58067226 0.0296793 C41.37342918 0.03279249 48.16617009 0.04100571 54.95891994 0.05102879 C62.69035367 0.0621903 70.42178815 0.06770047 78.15322793 0.07272422 C94.06147082 0.08318834 109.96969771 0.10078754 125.87792873 0.12304783 C125.87792873 3.09304783 125.87792873 6.06304783 125.87792873 9.12304783 C119.70681377 10.21342899 113.67904474 10.26437902 107.42236233 10.25244236 C105.72112461 10.25507084 105.72112461 10.25507084 103.98551846 10.25775242 C100.24911867 10.26214177 96.51276648 10.25924358 92.77636623 10.25586033 C90.17518003 10.25653411 87.57399388 10.25750476 84.97280788 10.2587595 C79.52743782 10.26023244 74.08208555 10.25819032 68.6367178 10.25341892 C62.34791997 10.247972 56.05915454 10.24974453 49.77035749 10.25524533 C43.70858048 10.26033453 37.64681929 10.25979045 31.58504009 10.25686359 C29.0102084 10.25619629 26.43537588 10.25701589 23.86054516 10.25934315 C20.2652431 10.26188013 16.67000348 10.25801445 13.07470608 10.25244236 C11.47711201 10.25547871 11.47711201 10.25547871 9.84724331 10.25857639 C8.86603008 10.25575657 7.88481686 10.25293674 6.8738699 10.25003147 C6.02477236 10.24965445 5.17567482 10.24927742 4.30084705 10.24888897 C1.74504053 10.1161459 -0.62804248 9.6839979 -3.12207127 9.12304783 C-3.21972752 2.97070408 -3.21972752 2.97070408 -3.12207127 1.12304783 C-2.12207127 0.12304783 -2.12207127 0.12304783 0 0 Z " fill="#020202" transform="translate(18.122071266174316,296.8769521713257)"/>
<path d="M0 0 C16.54147069 -0.02332889 33.08293606 -0.04097912 49.62441921 -0.05181217 C57.30438727 -0.05697515 64.98434513 -0.06401789 72.66430664 -0.07543945 C79.35577989 -0.08538623 86.04724576 -0.09185341 92.7387262 -0.09408849 C96.28395601 -0.09539561 99.82916468 -0.09848153 103.37438774 -0.10573006 C107.32568645 -0.1137438 111.2769642 -0.11399114 115.22827148 -0.11352539 C116.41222 -0.11712067 117.59616852 -0.12071594 118.81599426 -0.12442017 C119.88596649 -0.1230455 120.95593872 -0.12167084 122.05833435 -0.12025452 C122.99395423 -0.12117631 123.92957411 -0.1220981 124.8935461 -0.12304783 C127 0 127 0 128 1 C128.14115161 3.67058851 128.04247107 6.32432238 128 9 C122.26083713 10.22808188 116.61939822 10.14062643 110.78149414 10.12939453 C109.66044785 10.13114685 108.53940155 10.13289917 107.38438416 10.13470459 C103.6846257 10.13909992 99.98491518 10.13619304 96.28515625 10.1328125 C93.70975231 10.13348625 91.13434843 10.13445687 88.5589447 10.13571167 C83.163069 10.13718554 77.76721126 10.13513995 72.37133789 10.13037109 C66.14565273 10.12493216 59.92000034 10.12669039 53.69431597 10.1321975 C47.69074686 10.13729429 41.68719369 10.13673942 35.68362236 10.13381577 C33.13556349 10.13314934 30.58750377 10.13396498 28.03944588 10.13629532 C24.47557497 10.1388392 20.91176665 10.13495655 17.34790039 10.12939453 C16.29780792 10.13141876 15.24771545 10.13344299 14.165802 10.13552856 C9.02459279 10.12068987 4.038438 10.08937889 -1 9 C-2.60031344 5.79937313 -1.03173691 3.27728194 0 0 Z " fill="#020202" transform="translate(859,297)"/>
<path d="M0 0 C2.24247752 -0.00067582 4.48495497 -0.00164814 6.72743225 -0.00289917 C11.37876091 -0.00435853 16.03007012 -0.00227602 20.68139648 0.00244141 C26.63610567 0.00818791 32.59077025 0.00481777 38.54547787 -0.00113106 C43.15483437 -0.00474211 47.76418025 -0.00359642 52.37353706 -0.00100327 C54.57074552 -0.00033808 56.76795496 -0.00114808 58.96516228 -0.00348282 C62.02229258 -0.00602372 65.07934976 -0.00215065 68.13647461 0.00341797 C69.48529221 0.00038162 69.48529221 0.00038162 70.86135864 -0.00271606 C75.30503432 0.01226986 79.47321768 0.23360794 83.84765625 1.1328125 C83.84765625 3.7728125 83.84765625 6.4128125 83.84765625 9.1328125 C80.3948375 9.91339756 77.21011065 10.25828718 73.67294312 10.25979614 C72.14196739 10.26402588 72.14196739 10.26402588 70.58006287 10.26834106 C68.9169381 10.26530472 68.9169381 10.26530472 67.22021484 10.26220703 C65.45607491 10.26483551 65.45607491 10.26483551 63.65629578 10.26751709 C60.43953691 10.2711592 57.22281931 10.27031267 54.00606108 10.267138 C50.63755426 10.26460236 47.26905015 10.26695519 43.90054321 10.26852417 C38.24651598 10.27034184 32.59250181 10.26794957 26.93847656 10.26318359 C20.40088079 10.25773648 13.86331617 10.2595085 7.32572114 10.26501 C1.71033059 10.2695463 -3.90505057 10.2701893 -9.52044237 10.26757133 C-12.87339119 10.26601209 -16.22632535 10.26580527 -19.57927322 10.26910782 C-23.31410095 10.27163827 -27.0488682 10.26778836 -30.78369141 10.26220703 C-31.89648972 10.26423126 -33.00928802 10.26625549 -34.1558075 10.26834106 C-35.17081833 10.26552124 -36.18582916 10.26270142 -37.2315979 10.25979614 C-38.11463404 10.25941912 -38.99767017 10.25904209 -39.90746498 10.25865364 C-42.15234375 10.1328125 -42.15234375 10.1328125 -45.15234375 9.1328125 C-45.15234375 6.4928125 -45.15234375 3.8528125 -45.15234375 1.1328125 C-30.09060112 0.27173467 -15.08446815 -0.01628826 0 0 Z " fill="#010101" transform="translate(60.15234375,337.8671875)"/>
<path d="M0 0 C0.66 0 1.32 0 2 0 C2.60920288 1.3765979 2.60920288 1.3765979 3.23071289 2.78100586 C4.81334633 6.35599358 6.39810068 9.93003826 7.98339844 13.50384521 C8.70183509 15.1241068 9.41977271 16.74458976 10.13720703 18.36529541 C14.15969057 27.45048976 18.21662766 36.5160278 22.40234375 45.52734375 C23.09829833 47.03194893 23.7941819 48.53658695 24.48999023 50.04125977 C25.48692133 52.19612095 26.48761292 54.34876208 27.50125122 56.49581909 C28.43784776 58.47973254 29.36066373 60.46955622 30.28125 62.4609375 C30.80783203 63.58290527 31.33441406 64.70487305 31.87695312 65.86083984 C33.04657144 69.13017729 33.22574785 71.55734522 33 75 C31.02 75.495 31.02 75.495 29 76 C24.36752019 70.91582714 22.08399213 64.85590979 19.44335938 58.59765625 C18.88551758 57.35048828 18.88551758 57.35048828 18.31640625 56.078125 C17.82829468 54.93972168 17.82829468 54.93972168 17.33032227 53.77832031 C16.10902525 51.78811907 16.10902525 51.78811907 13.67993164 51.25341797 C11.03736148 51.00353295 8.45906671 50.87060369 5.8046875 50.8671875 C4.84175781 50.86589844 3.87882812 50.86460938 2.88671875 50.86328125 C1.39591797 50.86908203 1.39591797 50.86908203 -0.125 50.875 C-1.12660156 50.87113281 -2.12820312 50.86726563 -3.16015625 50.86328125 C-4.12050781 50.86457031 -5.08085937 50.86585937 -6.0703125 50.8671875 C-6.94445801 50.86831543 -7.81860352 50.86944336 -8.71923828 50.87060547 C-11.16500016 50.90945294 -11.16500016 50.90945294 -14 52 C-15.33294943 54.17459142 -15.33294943 54.17459142 -16.4453125 56.875 C-16.88230469 57.85984375 -17.31929687 58.8446875 -17.76953125 59.859375 C-18.21683594 60.89578125 -18.66414063 61.9321875 -19.125 63 C-20.02173245 65.04241612 -20.92008271 67.08412297 -21.8203125 69.125 C-22.21492676 70.03507812 -22.60954102 70.94515625 -23.01611328 71.8828125 C-24 74 -24 74 -25 75 C-26.99958364 75.04080783 -29.00045254 75.04254356 -31 75 C-30.59469926 67.72183358 -28.09755586 62.25650523 -24.9375 55.75 C-23.85277739 53.46090883 -22.77091568 51.17046051 -21.69140625 48.87890625 C-21.40249512 48.26783524 -21.11358398 47.65676422 -20.81591797 47.0271759 C-16.86515644 38.64266212 -13.13023425 30.16083814 -9.375 21.6875 C-8.6692543 20.09925504 -7.96344511 18.51103828 -7.25756836 16.92285156 C-6.59600143 15.4317249 -5.93461604 13.94051767 -5.2734375 12.44921875 C-4.82102943 11.43044899 -4.82102943 11.43044899 -4.35948181 10.39109802 C-2.83867915 6.9521414 -1.36926878 3.50218438 0 0 Z M0 20 C-1.83645687 23.81100321 -3.66864144 27.62404453 -5.5 31.4375 C-6.02464844 32.52611328 -6.54929688 33.61472656 -7.08984375 34.73632812 C-7.83427734 36.28803711 -7.83427734 36.28803711 -8.59375 37.87109375 C-9.05458984 38.82943115 -9.51542969 39.78776855 -9.99023438 40.77514648 C-11.06888057 42.74455433 -11.06888057 42.74455433 -11 44 C-3.41 44 4.18 44 12 44 C11.30809065 40.54045326 10.79955246 38.20073984 9.44140625 35.1171875 C9.13783203 34.42496094 8.83425781 33.73273437 8.52148438 33.01953125 C8.20501953 32.31183594 7.88855469 31.60414062 7.5625 30.875 C7.24990234 30.15957031 6.93730469 29.44414063 6.61523438 28.70703125 C5.2516876 25.62247511 3.87484839 22.81227258 2 20 C1.34 20 0.68 20 0 20 Z " fill="#010101" transform="translate(136,24)"/>
<path d="M0 0 C4.2552944 2.14378612 5.92686306 4.02006645 7.921875 8.3203125 C8.67887695 9.9295459 8.67887695 9.9295459 9.45117188 11.57128906 C9.96228516 12.70276367 10.47339844 13.83423828 11 15 C11.75893555 16.65467285 11.75893555 16.65467285 12.53320312 18.34277344 C14.1249132 21.84513929 15.69091594 25.35799642 17.25 28.875 C18.38280024 31.42636712 19.51703139 33.97709352 20.65234375 36.52734375 C20.93321335 37.15872757 21.21408295 37.79011139 21.50346375 38.44062805 C23.31593578 42.50275113 25.17473511 46.540352 27.06640625 50.56640625 C27.76491699 52.06228271 27.76491699 52.06228271 28.47753906 53.58837891 C29.34393437 55.43747058 30.21909167 57.28249154 31.10449219 59.12255859 C33.18974119 63.59456996 34.55089034 66.94332006 34 72 C31.75 72.3125 31.75 72.3125 29 72 C24.96729398 67.90131924 23.01664305 62.96054455 20.8125 57.75 C20.1125812 56.11897324 19.41085507 54.48872047 18.70703125 52.859375 C18.4025708 52.14233398 18.09811035 51.42529297 17.78442383 50.68652344 C17.1198034 49.00548921 17.1198034 49.00548921 16 48 C13.85441173 47.91224395 11.70595579 47.89304781 9.55859375 47.90234375 C8.25341797 47.90556641 6.94824219 47.90878906 5.60351562 47.91210938 C4.2148431 47.92046599 2.82617123 47.92893095 1.4375 47.9375 C0.04492344 47.94251334 -1.34765481 47.94707653 -2.74023438 47.95117188 C-6.1601987 47.96300566 -9.58007844 47.9794912 -13 48 C-13.29132812 48.73968018 -13.58265625 49.47936035 -13.8828125 50.24145508 C-15.45426619 54.12166819 -17.22529433 57.89696016 -19 61.6875 C-19.35578125 62.45900391 -19.7115625 63.23050781 -20.078125 64.02539062 C-20.59632813 65.13237305 -20.59632813 65.13237305 -21.125 66.26171875 C-21.59292969 67.26658325 -21.59292969 67.26658325 -22.0703125 68.29174805 C-23 70 -23 70 -25 72 C-27.625 72.125 -27.625 72.125 -30 72 C-29.56078651 65.02951919 -27.39032536 59.81346058 -24.375 53.5625 C-23.38175683 51.4510171 -22.38963561 49.33900619 -21.3984375 47.2265625 C-20.85799805 46.08219727 -20.31755859 44.93783203 -19.76074219 43.75878906 C-16.77798454 37.41583256 -13.89574223 31.0263988 -11.00079346 24.64303589 C-10.01576884 22.47225116 -9.02844903 20.30252422 -8.04052734 18.13305664 C-7.42279724 16.77492705 -6.80511911 15.41677382 -6.1875 14.05859375 C-5.64480469 12.86548584 -5.10210938 11.67237793 -4.54296875 10.44311523 C-2.9897504 6.97712815 -1.48629301 3.49507604 0 0 Z M0 17 C-5.58738459 28.63165453 -5.58738459 28.63165453 -8 41 C-1.07 41 5.86 41 13 41 C11.52091277 35.0836511 10.12226944 30.43916416 7.625 25.0625 C7.18800781 24.05606445 7.18800781 24.05606445 6.7421875 23.02929688 C5.0867208 19.25078303 5.0867208 19.25078303 1.7734375 17.05859375 C1.18820312 17.03925781 0.60296875 17.01992188 0 17 Z " fill="#010101" transform="translate(598,27)"/>
<path d="M0 0 C16.67190039 0.10731104 33.34375356 0.2198391 50.01557064 0.33933926 C57.7560517 0.39468912 65.49653737 0.44817395 73.23706055 0.49731445 C79.98130043 0.54013476 86.72550612 0.58640721 93.46969324 0.63687855 C97.04284857 0.66349692 100.61599704 0.68835033 104.18919182 0.70907402 C108.17166542 0.73223596 112.15405836 0.76310299 116.13647461 0.79467773 C117.32977386 0.8004332 118.52307312 0.80618866 119.75253296 0.81211853 C120.83091934 0.82190735 121.90930573 0.83169617 123.02037048 0.84178162 C124.43486182 0.85146044 124.43486182 0.85146044 125.87792873 0.8613348 C128 1 128 1 129 2 C129.125 5.5 129.125 5.5 129 9 C127.3313703 10.6686297 125.31407333 10.14252345 123.02037048 10.15821838 C121.9419841 10.1680072 120.86359772 10.17779602 119.75253296 10.18788147 C118.5592337 10.19363693 117.36593445 10.1993924 116.13647461 10.20532227 C114.88787155 10.21522186 113.63926849 10.22512146 112.35282898 10.23532104 C108.91911843 10.26157245 105.48543192 10.28340809 102.05168223 10.30332303 C98.4668478 10.32514424 94.8820563 10.35255178 91.29725647 10.37937927 C84.5045307 10.42935859 77.71178117 10.4742779 70.91900879 10.51740164 C63.18754457 10.56672934 55.45612341 10.62166398 47.72470081 10.67708123 C31.81650673 10.79098166 15.90827252 10.89760415 0 11 C0 7.37 0 3.74 0 0 Z " fill="#010101" transform="translate(15,173)"/>
<path d="M0 0 C16.3419967 -0.04672718 32.68397173 -0.08199236 49.0260191 -0.10362434 C56.61396709 -0.11393555 64.20187357 -0.12799292 71.78979492 -0.15087891 C78.40366529 -0.17081754 85.01750559 -0.18371757 91.63140517 -0.18817699 C95.1331958 -0.19078357 98.63490039 -0.19690693 102.13666344 -0.21146011 C106.04644759 -0.22757712 109.95614769 -0.22797938 113.8659668 -0.22705078 C115.02618347 -0.23424133 116.18640015 -0.24143188 117.3817749 -0.24884033 C118.98236 -0.24471634 118.98236 -0.24471634 120.61528015 -0.24050903 C121.53983851 -0.24235262 122.46439688 -0.24419621 123.41697216 -0.24609566 C126.2540173 0.02420127 128.41703775 0.82404042 131 2 C131 3.65 131 5.3 131 7 C127.7804155 8.90051047 125.4152628 9.24785625 121.6975708 9.24050903 C120.08642647 9.24463303 120.08642647 9.24463303 118.44273376 9.24884033 C117.26957108 9.24164978 116.09640839 9.23445923 114.88769531 9.22705078 C113.02876396 9.22748886 113.02876396 9.22748886 111.13227844 9.22793579 C107.73789993 9.22678149 104.34376493 9.21675359 100.94942951 9.20278788 C97.40068085 9.19028225 93.85192892 9.18911015 90.30316162 9.18673706 C83.58485457 9.18052179 76.86661264 9.16411036 70.14833426 9.14403808 C62.49906127 9.12168053 54.84978515 9.11068601 47.20048761 9.10064721 C31.46695403 9.07974416 15.73348542 9.04456729 0 9 C0 6.03 0 3.06 0 0 Z " fill="#010101" transform="translate(15,215)"/>
<path d="M0 0 C1.60279192 0.00015914 3.20558896 0.00585476 4.80834961 0.01586914 C5.65038437 0.01728409 6.49241913 0.01869904 7.35997009 0.02015686 C10.06024671 0.02577276 12.76044163 0.03832791 15.46069336 0.05102539 C17.28686404 0.05603834 19.11303602 0.06060161 20.93920898 0.06469727 C25.42556878 0.07574735 29.9118672 0.0930226 34.39819336 0.11352539 C34.06819336 2.09352539 33.73819336 4.07352539 33.39819336 6.11352539 C22.83819336 6.11352539 12.27819336 6.11352539 1.39819336 6.11352539 C1.39819336 13.37352539 1.39819336 20.63352539 1.39819336 28.11352539 C11.95819336 28.11352539 22.51819336 28.11352539 33.39819336 28.11352539 C33.39819336 30.75352539 33.39819336 33.39352539 33.39819336 36.11352539 C22.83819336 36.11352539 12.27819336 36.11352539 1.39819336 36.11352539 C1.39819336 45.35352539 1.39819336 54.59352539 1.39819336 64.11352539 C12.28819336 64.11352539 23.17819336 64.11352539 34.39819336 64.11352539 C34.06819336 66.75352539 33.73819336 69.39352539 33.39819336 72.11352539 C21.18819336 72.11352539 8.97819336 72.11352539 -3.60180664 72.11352539 C-5.03777411 69.24159046 -4.72910523 66.77794877 -4.73120117 63.56835938 C-4.73295349 62.89667725 -4.73470581 62.22499512 -4.73651123 61.53295898 C-4.74091955 59.30848624 -4.73799568 57.08409272 -4.73461914 54.85961914 C-4.73529239 53.31787602 -4.7362626 51.77613301 -4.73751831 50.23439026 C-4.73899383 47.00211578 -4.73684509 43.76986892 -4.73217773 40.53759766 C-4.72647575 36.38553645 -4.72976333 32.23353982 -4.7357502 28.08148098 C-4.73935566 24.89801035 -4.73821738 21.71455515 -4.73562241 18.53108406 C-4.73495334 16.99960383 -4.73578085 15.46812222 -4.73810196 13.9366436 C-4.74062876 11.80082333 -4.73678776 9.66510919 -4.73120117 7.52929688 C-4.73040558 6.31177231 -4.72960999 5.09424774 -4.72879028 3.83982849 C-4.53616324 -0.29581999 -4.28708496 0.13512469 0 0 Z " fill="#010101" transform="translate(945.601806640625,26.886474609375)"/>
<path d="M0 0 C4.95 0 9.9 0 15 0 C15 24.75 15 49.5 15 75 C10.05 75 5.1 75 0 75 C0 50.25 0 25.5 0 0 Z " fill="#010101" transform="translate(713,272)"/>
<path d="M0 0 C4.95 0 9.9 0 15 0 C15 24.42 15 48.84 15 74 C10.05 74 5.1 74 0 74 C0 49.58 0 25.16 0 0 Z " fill="#020202" transform="translate(735,175)"/>
<path d="M0 0 C11 0 11 0 15 2 C15 25.76 15 49.52 15 74 C11 76 11 76 0 76 C0 50.92 0 25.84 0 0 Z " fill="#010101" transform="translate(161,174)"/>
<path d="M0 0 C4.29 0 8.58 0 13 0 C13.76764693 4.60588161 14.12195832 8.4107565 14.11352539 13.01513672 C14.11367142 13.68900925 14.11381744 14.36288177 14.1139679 15.05717468 C14.11327621 17.26471273 14.10551897 19.47216436 14.09765625 21.6796875 C14.09578942 23.21810866 14.09436677 24.75653042 14.09336853 26.29495239 C14.08956419 30.32924055 14.07975184 34.36349227 14.06866455 38.39776611 C14.0584055 42.52038073 14.05386131 46.64300128 14.04882812 50.765625 C14.03812757 58.84376665 14.02107635 66.92187878 14 75 C3.40603807 77.20301903 3.40603807 77.20301903 -1 75 C-0.67 50.25 -0.34 25.5 0 0 Z " fill="#020202" transform="translate(162,272)"/>
<path d="M0 0 C42.57 0 85.14 0 129 0 C129 2.64 129 5.28 129 8 C86.43 8 43.86 8 0 8 C0 5.36 0 2.72 0 0 Z " fill="#020202" transform="translate(858,257)"/>
<path d="M0 0 C11.55 0.33 23.1 0.66 35 1 C35 2.65 35 4.3 35 6 C31.72373625 6.9821994 28.77211881 7.11580914 25.359375 7.09765625 C24.28945313 7.09443359 23.21953125 7.09121094 22.1171875 7.08789062 C21.00601563 7.07951172 19.89484375 7.07113281 18.75 7.0625 C17.06003906 7.05573242 17.06003906 7.05573242 15.3359375 7.04882812 C12.55726894 7.03705411 9.77862773 7.019119 7 7 C7 14.26 7 21.52 7 29 C15.58 29 24.16 29 33 29 C33.99 30.98 34.98 32.96 36 35 C30.24598031 37.49406314 24.7656849 37.22720907 18.625 37.125 C15.11875 37.08375 11.6125 37.0425 8 37 C7.67 48.88 7.34 60.76 7 73 C4.69 73 2.38 73 0 73 C-0.77452561 68.88514948 -1.12623042 64.99925153 -1.12939453 60.81445312 C-1.13254669 59.61300659 -1.13569885 58.41156006 -1.13894653 57.17370605 C-1.1369223 55.88919556 -1.13489807 54.60468506 -1.1328125 53.28125 C-1.13348704 51.93656395 -1.13445832 50.59187802 -1.13571167 49.24719238 C-1.13718155 46.43643018 -1.13505694 43.62569988 -1.13037109 40.81494141 C-1.12467423 37.22398591 -1.12795704 33.63310517 -1.13394356 30.0421524 C-1.13756834 27.26767419 -1.13640178 24.4932135 -1.13381577 21.71873474 C-1.13283048 19.75458731 -1.13585128 17.79043918 -1.13894653 15.82629395 C-1.13579437 14.62484741 -1.13264221 13.42340088 -1.12939453 12.18554688 C-1.12820114 10.60719055 -1.12820114 10.60719055 -1.12698364 8.99694824 C-1 6 -1 6 0 0 Z " fill="#010101" transform="translate(30,26)"/>
<path d="M0 0 C4.29 0 8.58 0 13 0 C13 24.42 13 48.84 13 74 C6.565 74.495 6.565 74.495 0 75 C0 50.25 0 25.5 0 0 Z " fill="#010101" transform="translate(537,175)"/>
<path d="M0 0 C0.68064514 -0.00175232 1.36129028 -0.00350464 2.06256104 -0.00531006 C4.30019731 -0.00968967 6.53775361 -0.00680168 8.77539062 -0.00341797 C10.34753433 -0.00409275 11.91967794 -0.00506422 13.49182129 -0.00631714 C16.78687534 -0.00778938 20.08190224 -0.00565708 23.37695312 -0.00097656 C27.56124827 0.00468281 31.74547872 0.00146294 35.92977142 -0.00454903 C39.17981433 -0.00819973 42.42984246 -0.00699495 45.67988586 -0.00442123 C47.22015898 -0.0037624 48.76043351 -0.0045431 50.30070496 -0.00690079 C59.89659007 -0.01835467 69.36467099 0.29957738 78.93164062 1.12939453 C78.93164062 3.76939453 78.93164062 6.40939453 78.93164062 9.12939453 C75.0354512 10.39941834 71.12680684 10.26986952 67.07714844 10.25878906 C66.28962189 10.26054138 65.50209534 10.2622937 64.69070435 10.26409912 C62.08870231 10.26849787 59.48676835 10.26558545 56.88476562 10.26220703 C55.0711872 10.26288091 53.25760887 10.26385163 51.44403076 10.2651062 C47.64106385 10.26658072 43.83812043 10.26443749 40.03515625 10.25976562 C35.17537172 10.25408475 30.31564261 10.25733847 25.45586014 10.26333809 C21.70851225 10.26696421 17.96117734 10.26579542 14.21382904 10.2632103 C12.42298119 10.26254585 10.63213215 10.26335249 8.84128571 10.26568985 C6.32872943 10.26824828 3.81626075 10.2643304 1.30371094 10.25878906 C0.20613968 10.26182541 0.20613968 10.26182541 -0.91360474 10.2649231 C-5.70955743 10.24546943 -10.31857265 9.80142561 -15.06835938 9.12939453 C-15.19335938 6.25439453 -15.19335938 6.25439453 -15.06835938 3.12939453 C-11.16745037 -0.77151448 -5.2361637 0.00340481 0 0 Z " fill="#010101" transform="translate(908.068359375,337.87060546875)"/>
<path d="M0 0 C1.98 0 3.96 0 6 0 C8.2504607 7.19524459 8.25838601 13.96909386 8.1953125 21.46875 C8.1924826 22.74480103 8.18965271 24.02085205 8.18673706 25.33557129 C8.17747997 28.70247059 8.15955962 32.06909082 8.1373291 35.43591309 C8.11674672 38.88173024 8.10770904 42.32757639 8.09765625 45.7734375 C8.07566633 52.51570112 8.0422415 59.25783447 8 66 C8.60996826 65.99476318 9.21993652 65.98952637 9.84838867 65.98413086 C12.62808185 65.96326665 15.40775851 65.95030987 18.1875 65.9375 C19.14720703 65.92912109 20.10691406 65.92074219 21.09570312 65.91210938 C22.02705078 65.90888672 22.95839844 65.90566406 23.91796875 65.90234375 C24.77156982 65.89710693 25.6251709 65.89187012 26.50463867 65.88647461 C29.09246747 66.00420677 31.47661953 66.42892956 34 67 C34 69.31 34 71.62 34 74 C22.78 74 11.56 74 0 74 C0 49.58 0 25.16 0 0 Z " fill="#010101" transform="translate(421,25)"/>
<path d="M0 0 C18.81 0.495 18.81 0.495 38 1 C38 2.65 38 4.3 38 6 C34.71480525 7.09506492 32.26336585 7.09960608 28.8125 7.0625 C27.18248047 7.04896484 27.18248047 7.04896484 25.51953125 7.03515625 C24.68808594 7.02355469 23.85664062 7.01195312 23 7 C23.00444122 7.76563766 23.00888245 8.53127533 23.01345825 9.32011414 C23.05357314 16.54417592 23.08400377 23.7681835 23.10362434 30.99232769 C23.11405065 34.7061152 23.12818869 38.41981048 23.15087891 42.13354492 C23.17264856 45.71914893 23.1845773 49.30466435 23.18975449 52.89032936 C23.19344285 54.25663459 23.20064534 55.6229351 23.21146011 56.9892025 C23.22602896 58.90640895 23.22681738 60.823705 23.22705078 62.7409668 C23.231492 63.83128708 23.23593323 64.92160736 23.24050903 66.04496765 C22.99402132 69.07345747 22.28025509 71.26132102 21 74 C16.125 73.125 16.125 73.125 15 72 C14.90590521 69.97505769 14.88256878 67.9468013 14.88647461 65.91967773 C14.88655014 64.61840439 14.88662567 63.31713104 14.88670349 61.97642517 C14.89181091 60.54548098 14.89702692 59.11453718 14.90234375 57.68359375 C14.90420797 56.2277074 14.90563185 54.77182043 14.90663147 53.31593323 C14.91045635 49.47720621 14.92028636 45.63851681 14.93133545 41.79980469 C14.94155022 37.88542184 14.94612923 33.97103294 14.95117188 30.05664062 C14.96190867 22.37107459 14.97950521 14.68554735 15 7 C10.05 7 5.1 7 0 7 C0 4.69 0 2.38 0 0 Z " fill="#010101" transform="translate(492,26)"/>
</svg>
